<svg width="120" height="121" viewBox="0 0 120 121" fill="none" xmlns="http://www.w3.org/2000/svg">
<g clip-path="url(#clip0_1041_50174)">
<path d="M60 120.484C93.1371 120.484 120 93.6215 120 60.4844C120 27.3473 93.1371 0.484375 60 0.484375C26.8629 0.484375 0 27.3473 0 60.4844C0 93.6215 26.8629 120.484 60 120.484Z" fill="#0066B3"/>
<path d="M96.1095 51.3944C93.8014 50.6093 89.5658 49.7183 82.4649 49.7183C75.9977 49.6843 69.7456 52.0382 64.9066 56.3288C64.3829 56.7828 63.782 57.1392 63.1324 57.3809C58.6729 58.8889 53.977 59.5767 49.2724 59.4109H49.1349C44.4559 59.4109 41.5197 58.6257 39.8043 57.2209C38.2343 55.9214 37.5864 53.9901 37.7043 51.2658H68.6122L68.7104 50.8182C69.3452 48.1266 69.7497 45.3858 69.9194 42.6256C69.9194 36.2622 67.792 31.3083 64.1058 27.9519C60.4196 24.5955 55.2621 22.8801 49.2916 22.8801C39.2033 22.8801 32.3694 26.9548 28.0716 32.3879C24.2175 37.3883 22.103 43.5112 22.0501 49.8244C21.9908 52.5837 22.4979 55.326 23.5402 57.8816C24.5826 60.4372 26.1379 62.752 28.1101 64.6828C32.106 68.5063 37.9707 70.8538 45.5386 70.8538C49.1684 70.8621 52.7954 70.6523 56.4001 70.2256C55.7652 72.5931 55.4407 75.0332 55.4347 77.4844C55.4347 83.5335 57.4761 88.676 61.3227 92.3544C65.2483 96.1072 70.8771 98.0896 77.5739 98.0896C80.8728 98.0575 84.1569 97.6424 87.3601 96.8527L88.6711 96.5151L91.6034 82.383L87.6778 84.2044C85.0083 85.3824 82.1164 85.9715 79.1988 85.9316C76.9357 86.0686 74.701 85.3701 72.9188 83.9687C71.3956 82.6066 70.6223 80.5299 70.6223 77.7898C70.6879 73.9933 71.8942 70.3044 74.0844 67.2028C75.1943 65.5673 76.6873 64.228 78.4333 63.3016C80.1793 62.3752 82.1253 61.8898 84.1019 61.8876C87.1587 61.8029 90.2086 62.2207 93.1301 63.1244L95.442 63.9095L97.9501 52.0111L96.1095 51.3944ZM38.8619 42.0362C39.5316 39.7569 40.9375 37.7637 42.86 36.3681C44.7825 34.9725 47.1132 34.2531 49.4878 34.3225C50.5166 34.2406 51.5496 34.4159 52.4939 34.8325C53.4381 35.2492 54.2639 35.8941 54.897 36.7093C55.9166 38.2967 56.4451 40.1497 56.4161 42.0362H38.8619Z" fill="white"/>
</g>
<defs>
<clipPath id="clip0_1041_50174">
<rect width="120" height="120" fill="white" transform="translate(0 0.484375)"/>
</clipPath>
</defs>
</svg>
