<svg width="100" height="100" viewBox="0 0 100 100" fill="none" xmlns="http://www.w3.org/2000/svg">
<rect width="100" height="100" fill="#E5EAEE"/>
<path d="M42.5 56.5011V44.4956C42.5 43.3929 43.3935 42.5 44.5 42.5H56.5C57.6046 42.5 58.5 43.3954 58.5 44.5V56.5C58.5 57.6046 57.6046 58.5 56.5 58.5H44.5C43.3949 58.5 42.5 57.6052 42.5 56.5011Z" stroke="#002C5A" stroke-width="2" stroke-linecap="round" stroke-linejoin="round"/>
<path d="M44 57.5L49.2929 52.2071C49.6834 51.8166 50.3166 51.8166 50.7071 52.2071L53 54.5M56.5 58L53 54.5M53 54.5L55.2929 52.2071C55.6834 51.8166 56.3166 51.8166 56.7071 52.2071L58 53.5" stroke="#002C5A" stroke-width="2" stroke-linecap="round" stroke-linejoin="round"/>
</svg>
